<svg id="visual" viewBox="0 0 1200 200" width="1200" height="200" xmlns="http://www.w3.org/2000/svg" xmlns:xlink="http://www.w3.org/1999/xlink" version="1.1"><path d="M0 11L8.7 16.7C17.3 22.3 34.7 33.7 52 36.7C69.3 39.7 86.7 34.3 104.2 28.7C121.7 23 139.3 17 156.8 17C174.3 17 191.7 23 209 27C226.3 31 243.7 33 261 33C278.3 33 295.7 31 313 31C330.3 31 347.7 33 365 32C382.3 31 399.7 27 417.2 26.7C434.7 26.3 452.3 29.7 469.8 26.7C487.3 23.7 504.7 14.3 522 13.3C539.3 12.3 556.7 19.7 574 27.7C591.3 35.7 608.7 44.3 626 46C643.3 47.7 660.7 42.3 678 36C695.3 29.7 712.7 22.3 730.2 22.3C747.7 22.3 765.3 29.7 782.8 30C800.3 30.3 817.7 23.7 835 17.5C852.3 11.3 869.7 5.7 887 7C904.3 8.3 921.7 16.7 939 17.2C956.3 17.7 973.7 10.3 991 12.7C1008.3 15 1025.7 27 1043.2 33.7C1060.7 40.3 1078.3 41.7 1095.8 36C1113.3 30.3 1130.7 17.7 1148 19.7C1165.3 21.7 1182.7 38.3 1191.3 46.7L1200 55L1200 0L1191.3 0C1182.7 0 1165.3 0 1148 0C1130.7 0 1113.3 0 1095.8 0C1078.3 0 1060.7 0 1043.2 0C1025.7 0 1008.3 0 991 0C973.7 0 956.3 0 939 0C921.7 0 904.3 0 887 0C869.7 0 852.3 0 835 0C817.7 0 800.3 0 782.8 0C765.3 0 747.7 0 730.2 0C712.7 0 695.3 0 678 0C660.7 0 643.3 0 626 0C608.7 0 591.3 0 574 0C556.7 0 539.3 0 522 0C504.7 0 487.3 0 469.8 0C452.3 0 434.7 0 417.2 0C399.7 0 382.3 0 365 0C347.7 0 330.3 0 313 0C295.7 0 278.3 0 261 0C243.7 0 226.3 0 209 0C191.7 0 174.3 0 156.8 0C139.3 0 121.7 0 104.2 0C86.7 0 69.3 0 52 0C34.7 0 17.3 0 8.7 0L0 0Z" fill="#f8f9fa"></path><path d="M0 113L8.7 118C17.3 123 34.7 133 52 132.7C69.3 132.3 86.7 121.7 104.2 100.7C121.7 79.7 139.3 48.3 156.8 38.7C174.3 29 191.7 41 209 56.3C226.3 71.7 243.7 90.3 261 95.3C278.3 100.3 295.7 91.7 313 87.7C330.3 83.7 347.7 84.3 365 95.7C382.3 107 399.7 129 417.2 123C434.7 117 452.3 83 469.8 61.7C487.3 40.3 504.7 31.7 522 39.3C539.3 47 556.7 71 574 77.7C591.3 84.3 608.7 73.7 626 74.3C643.3 75 660.7 87 678 92C695.3 97 712.7 95 730.2 88.7C747.7 82.3 765.3 71.7 782.8 76C800.3 80.3 817.7 99.7 835 90.3C852.3 81 869.7 43 887 36.7C904.3 30.3 921.7 55.7 939 73.7C956.3 91.7 973.7 102.3 991 106.7C1008.3 111 1025.7 109 1043.2 110.7C1060.7 112.3 1078.3 117.7 1095.8 105C1113.3 92.3 1130.7 61.7 1148 61.3C1165.3 61 1182.7 91 1191.3 106L1200 121L1200 53L1191.3 44.7C1182.7 36.3 1165.3 19.7 1148 17.7C1130.7 15.7 1113.3 28.3 1095.8 34C1078.3 39.7 1060.7 38.3 1043.2 31.7C1025.7 25 1008.3 13 991 10.7C973.7 8.3 956.3 15.7 939 15.5C921.7 15.3 904.3 7.7 887 6.3C869.7 5 852.3 10 835 15.8C817.7 21.7 800.3 28.3 782.8 28C765.3 27.7 747.7 20.3 730.2 20.3C712.7 20.3 695.3 27.7 678 34C660.7 40.3 643.3 45.7 626 44C608.7 42.3 591.3 33.7 574 25.7C556.7 17.7 539.3 10.3 522 11.3C504.7 12.3 487.3 21.7 469.8 24.7C452.3 27.7 434.7 24.3 417.2 24.7C399.7 25 382.3 29 365 30C347.7 31 330.3 29 313 29C295.7 29 278.3 31 261 31C243.7 31 226.3 29 209 25C191.7 21 174.3 15 156.8 15C139.3 15 121.7 21 104.2 26.7C86.7 32.3 69.3 37.7 52 34.7C34.7 31.7 17.3 20.3 8.7 14.7L0 9Z" fill="#b6fff2"></path><path d="M0 147L8.7 149.7C17.3 152.3 34.7 157.7 52 152.7C69.3 147.7 86.7 132.3 104.2 108.3C121.7 84.3 139.3 51.7 156.8 47.3C174.3 43 191.7 67 209 86.7C226.3 106.3 243.7 121.7 261 123.3C278.3 125 295.7 113 313 110.3C330.3 107.7 347.7 114.3 365 124.3C382.3 134.3 399.7 147.7 417.2 142C434.7 136.3 452.3 111.7 469.8 91.7C487.3 71.7 504.7 56.3 522 60.7C539.3 65 556.7 89 574 98C591.3 107 608.7 101 626 104.7C643.3 108.3 660.7 121.7 678 127.7C695.3 133.7 712.7 132.3 730.2 126C747.7 119.7 765.3 108.3 782.8 110.7C800.3 113 817.7 129 835 120C852.3 111 869.7 77 887 70.3C904.3 63.7 921.7 84.3 939 96.7C956.3 109 973.7 113 991 119.7C1008.3 126.3 1025.7 135.7 1043.2 136.7C1060.7 137.7 1078.3 130.3 1095.8 117.3C1113.3 104.3 1130.7 85.7 1148 87C1165.3 88.3 1182.7 109.7 1191.3 120.3L1200 131L1200 119L1191.3 104C1182.7 89 1165.3 59 1148 59.3C1130.7 59.7 1113.3 90.3 1095.8 103C1078.3 115.7 1060.7 110.3 1043.2 108.7C1025.7 107 1008.3 109 991 104.7C973.7 100.3 956.3 89.7 939 71.7C921.7 53.7 904.3 28.3 887 34.7C869.7 41 852.3 79 835 88.3C817.7 97.7 800.3 78.3 782.8 74C765.3 69.7 747.7 80.3 730.2 86.7C712.7 93 695.3 95 678 90C660.7 85 643.3 73 626 72.3C608.7 71.7 591.3 82.3 574 75.7C556.7 69 539.3 45 522 37.3C504.7 29.7 487.3 38.3 469.8 59.7C452.3 81 434.7 115 417.2 121C399.7 127 382.3 105 365 93.7C347.7 82.3 330.3 81.7 313 85.7C295.7 89.7 278.3 98.3 261 93.3C243.7 88.3 226.3 69.7 209 54.3C191.7 39 174.3 27 156.8 36.7C139.3 46.3 121.7 77.7 104.2 98.7C86.7 119.7 69.3 130.3 52 130.7C34.7 131 17.3 121 8.7 116L0 111Z" fill="#fff488"></path><path d="M0 151L8.7 154.3C17.3 157.7 34.7 164.3 52 169.3C69.3 174.3 86.7 177.7 104.2 160.3C121.7 143 139.3 105 156.8 93.3C174.3 81.7 191.7 96.3 209 111C226.3 125.7 243.7 140.3 261 140C278.3 139.7 295.7 124.3 313 127.7C330.3 131 347.7 153 365 162.3C382.3 171.7 399.7 168.3 417.2 158.7C434.7 149 452.3 133 469.8 113C487.3 93 504.7 69 522 75C539.3 81 556.7 117 574 131.7C591.3 146.3 608.7 139.7 626 141C643.3 142.3 660.7 151.7 678 159.3C695.3 167 712.7 173 730.2 164.7C747.7 156.3 765.3 133.7 782.8 131C800.3 128.3 817.7 145.7 835 138.3C852.3 131 869.7 99 887 96.3C904.3 93.7 921.7 120.3 939 128.7C956.3 137 973.7 127 991 129.3C1008.3 131.7 1025.7 146.3 1043.2 148C1060.7 149.7 1078.3 138.3 1095.8 123.3C1113.3 108.3 1130.7 89.7 1148 100C1165.3 110.3 1182.7 149.7 1191.3 169.3L1200 189L1200 129L1191.3 118.3C1182.7 107.7 1165.3 86.3 1148 85C1130.7 83.7 1113.3 102.3 1095.8 115.3C1078.3 128.3 1060.7 135.7 1043.2 134.7C1025.7 133.7 1008.3 124.3 991 117.7C973.7 111 956.3 107 939 94.7C921.7 82.3 904.3 61.7 887 68.3C869.7 75 852.3 109 835 118C817.7 127 800.3 111 782.8 108.7C765.3 106.3 747.7 117.7 730.2 124C712.7 130.3 695.3 131.7 678 125.7C660.7 119.7 643.3 106.3 626 102.7C608.7 99 591.3 105 574 96C556.7 87 539.3 63 522 58.7C504.7 54.3 487.3 69.7 469.8 89.7C452.3 109.7 434.7 134.3 417.2 140C399.7 145.7 382.3 132.3 365 122.3C347.7 112.3 330.3 105.7 313 108.3C295.7 111 278.3 123 261 121.3C243.7 119.7 226.3 104.3 209 84.7C191.7 65 174.3 41 156.8 45.3C139.3 49.7 121.7 82.3 104.2 106.3C86.7 130.3 69.3 145.7 52 150.7C34.7 155.7 17.3 150.3 8.7 147.7L0 145Z" fill="#fff488"></path><path d="M0 175L8.7 175.3C17.3 175.7 34.7 176.3 52 177.7C69.3 179 86.7 181 104.2 177.7C121.7 174.3 139.3 165.7 156.8 166.7C174.3 167.7 191.7 178.3 209 182.3C226.3 186.3 243.7 183.7 261 179.7C278.3 175.7 295.7 170.3 313 172C330.3 173.7 347.7 182.3 365 185C382.3 187.7 399.7 184.3 417.2 180C434.7 175.7 452.3 170.3 469.8 169C487.3 167.7 504.7 170.3 522 169.7C539.3 169 556.7 165 574 169.7C591.3 174.3 608.7 187.7 626 191C643.3 194.3 660.7 187.7 678 187C695.3 186.3 712.7 191.7 730.2 189.3C747.7 187 765.3 177 782.8 174C800.3 171 817.7 175 835 180.7C852.3 186.3 869.7 193.7 887 195.3C904.3 197 921.7 193 939 189.7C956.3 186.3 973.7 183.7 991 180.3C1008.3 177 1025.7 173 1043.2 168.3C1060.7 163.7 1078.3 158.3 1095.8 159.7C1113.3 161 1130.7 169 1148 175.3C1165.3 181.7 1182.7 186.3 1191.3 188.7L1200 191L1200 187L1191.3 167.3C1182.7 147.7 1165.3 108.3 1148 98C1130.7 87.7 1113.3 106.3 1095.8 121.3C1078.3 136.3 1060.7 147.7 1043.2 146C1025.7 144.3 1008.3 129.7 991 127.3C973.7 125 956.3 135 939 126.7C921.7 118.3 904.3 91.7 887 94.3C869.7 97 852.3 129 835 136.3C817.7 143.7 800.3 126.3 782.8 129C765.3 131.7 747.7 154.3 730.2 162.7C712.7 171 695.3 165 678 157.3C660.7 149.7 643.3 140.3 626 139C608.7 137.7 591.3 144.3 574 129.7C556.7 115 539.3 79 522 73C504.7 67 487.3 91 469.8 111C452.3 131 434.7 147 417.2 156.7C399.7 166.3 382.3 169.7 365 160.3C347.7 151 330.3 129 313 125.7C295.7 122.3 278.3 137.7 261 138C243.7 138.3 226.3 123.7 209 109C191.7 94.3 174.3 79.7 156.8 91.3C139.3 103 121.7 141 104.2 158.3C86.7 175.7 69.3 172.3 52 167.3C34.7 162.3 17.3 155.7 8.7 152.3L0 149Z" fill="#b6fff2"></path><path d="M0 201L8.7 201C17.3 201 34.7 201 52 201C69.3 201 86.7 201 104.2 201C121.7 201 139.3 201 156.8 201C174.3 201 191.7 201 209 201C226.3 201 243.7 201 261 201C278.3 201 295.7 201 313 201C330.3 201 347.7 201 365 201C382.3 201 399.7 201 417.2 201C434.7 201 452.3 201 469.8 201C487.3 201 504.7 201 522 201C539.3 201 556.7 201 574 201C591.3 201 608.7 201 626 201C643.3 201 660.7 201 678 201C695.3 201 712.7 201 730.2 201C747.7 201 765.3 201 782.8 201C800.3 201 817.7 201 835 201C852.3 201 869.7 201 887 201C904.3 201 921.7 201 939 201C956.3 201 973.7 201 991 201C1008.3 201 1025.7 201 1043.2 201C1060.7 201 1078.3 201 1095.8 201C1113.3 201 1130.7 201 1148 201C1165.3 201 1182.7 201 1191.3 201L1200 201L1200 189L1191.3 186.7C1182.7 184.3 1165.3 179.7 1148 173.3C1130.7 167 1113.3 159 1095.8 157.7C1078.3 156.3 1060.7 161.7 1043.2 166.3C1025.7 171 1008.3 175 991 178.3C973.7 181.7 956.3 184.3 939 187.7C921.7 191 904.3 195 887 193.3C869.7 191.7 852.3 184.3 835 178.7C817.7 173 800.3 169 782.8 172C765.3 175 747.7 185 730.2 187.3C712.7 189.7 695.3 184.3 678 185C660.7 185.7 643.3 192.3 626 189C608.7 185.7 591.3 172.3 574 167.7C556.7 163 539.3 167 522 167.7C504.7 168.3 487.3 165.7 469.8 167C452.3 168.3 434.7 173.7 417.2 178C399.7 182.3 382.3 185.7 365 183C347.7 180.3 330.3 171.7 313 170C295.7 168.3 278.3 173.7 261 177.7C243.7 181.7 226.3 184.3 209 180.3C191.7 176.3 174.3 165.7 156.8 164.7C139.3 163.7 121.7 172.3 104.2 175.7C86.7 179 69.3 177 52 175.7C34.7 174.3 17.3 173.7 8.7 173.3L0 173Z" fill="#f8f9fa"></path></svg>