<svg id="visual" viewBox="0 0 900 300" width="900" height="300" xmlns="http://www.w3.org/2000/svg" xmlns:xlink="http://www.w3.org/1999/xlink" version="1.1"><rect x="0" y="0" width="900" height="300" fill="#f8f9fa"></rect><path d="M0 140L9.3 140.7C18.7 141.3 37.3 142.7 56.2 153.5C75 164.3 94 184.7 112.8 190.3C131.7 196 150.3 187 169 179.8C187.7 172.7 206.3 167.3 225 167.7C243.7 168 262.3 174 281.2 189.7C300 205.3 319 230.7 337.8 243.3C356.7 256 375.3 256 394 238.5C412.7 221 431.3 186 450 176C468.7 166 487.3 181 506.2 191C525 201 544 206 562.8 202.8C581.7 199.7 600.3 188.3 619 177.8C637.7 167.3 656.3 157.7 675 158.3C693.7 159 712.3 170 731.2 184.5C750 199 769 217 787.8 228.7C806.7 240.3 825.3 245.7 844 231.8C862.7 218 881.3 185 890.7 168.5L900 152L900 0L890.7 0C881.3 0 862.7 0 844 0C825.3 0 806.7 0 787.8 0C769 0 750 0 731.2 0C712.3 0 693.7 0 675 0C656.3 0 637.7 0 619 0C600.3 0 581.7 0 562.8 0C544 0 525 0 506.2 0C487.3 0 468.7 0 450 0C431.3 0 412.7 0 394 0C375.3 0 356.7 0 337.8 0C319 0 300 0 281.2 0C262.3 0 243.7 0 225 0C206.3 0 187.7 0 169 0C150.3 0 131.7 0 112.8 0C94 0 75 0 56.2 0C37.3 0 18.7 0 9.3 0L0 0Z" fill="#b6fff2"></path><path d="M0 152L9.3 145.8C18.7 139.7 37.3 127.3 56.2 124.8C75 122.3 94 129.7 112.8 122.2C131.7 114.7 150.3 92.3 169 94C187.7 95.7 206.3 121.3 225 131C243.7 140.7 262.3 134.3 281.2 136.2C300 138 319 148 337.8 149C356.7 150 375.3 142 394 123.7C412.7 105.3 431.3 76.7 450 66.8C468.7 57 487.3 66 506.2 82.8C525 99.7 544 124.3 562.8 130C581.7 135.7 600.3 122.3 619 117C637.7 111.7 656.3 114.3 675 120C693.7 125.7 712.3 134.3 731.2 138.5C750 142.7 769 142.3 787.8 140.7C806.7 139 825.3 136 844 120.8C862.7 105.7 881.3 78.3 890.7 64.7L900 51L900 0L890.7 0C881.3 0 862.7 0 844 0C825.3 0 806.7 0 787.8 0C769 0 750 0 731.2 0C712.3 0 693.7 0 675 0C656.3 0 637.7 0 619 0C600.3 0 581.7 0 562.8 0C544 0 525 0 506.2 0C487.3 0 468.7 0 450 0C431.3 0 412.7 0 394 0C375.3 0 356.7 0 337.8 0C319 0 300 0 281.2 0C262.3 0 243.7 0 225 0C206.3 0 187.7 0 169 0C150.3 0 131.7 0 112.8 0C94 0 75 0 56.2 0C37.3 0 18.7 0 9.3 0L0 0Z" fill="#fff488"></path></svg>